<svg xmlns="http://www.w3.org/2000/svg" width="102.82" height="79.997" viewBox="0 0 102.82 79.997">
  <g id="logo-white" transform="translate(0 0)">
    <g id="Calque_1" data-name="Calque 1" transform="translate(0 0)">
      <path id="Tracé_72" data-name="Tracé 72" d="M0,348.483V338.07H1.534v10.413Z" transform="translate(0 -268.734)" fill="#fff"/>
      <path id="Tracé_73" data-name="Tracé 73" d="M33.482,345.337a3.116,3.116,0,0,1-3.45,3.13H26.07V346.98h3.706c1.327,0,2.172-.527,2.172-1.674s-.845-1.674-2.172-1.674H26.07v-1.491h3.452c1.214,0,1.916-.41,1.916-1.3s-.7-1.3-1.916-1.3H26.07V338.05h3.212c2.316,0,3.692.929,3.692,2.728A2.174,2.174,0,0,1,31.7,342.87,2.4,2.4,0,0,1,33.482,345.337Z" transform="translate(-20.723 -268.718)" fill="#fff"/>
      <path id="Tracé_74" data-name="Tracé 74" d="M74.69,339.53v-1.46h7.156v1.46Zm2.812,8.952v-8.1h1.532v8.1Z" transform="translate(-59.371 -268.734)" fill="#fff"/>
      <path id="Tracé_75" data-name="Tracé 75" d="M124.74,348.483V338.07h1.532v10.413Z" transform="translate(-99.157 -268.734)" fill="#fff"/>
      <path id="Tracé_76" data-name="Tracé 76" d="M160.269,348.483h-2.051l-4.346-4.586v4.586H152.34V338.07h1.532v4.586l4.09-4.586h2.051l-4.717,5.1Z" transform="translate(-121.096 -268.734)" fill="#fff"/>
      <path id="Tracé_77" data-name="Tracé 77" d="M212.116,347.5h-1.661l-1.038-2.223h0l-2.406-5.144-2.414,5.144h0l-1.036,2.223H201.9l5.111-10.665Z" transform="translate(-160.491 -267.756)" fill="#fff"/>
      <path id="Tracé_78" data-name="Tracé 78" d="M273.538,348.483h-1.79l-2.666-3.6H267.4v3.6H265.87V343.4h3.819a1.925,1.925,0,1,0,.023-3.843H265.87V338.07h3.323c2.8,0,4.09,1.364,4.09,3.331a3.3,3.3,0,0,1-2.508,3.347Z" transform="translate(-211.342 -268.734)" fill="#fff"/>
      <path id="Tracé_79" data-name="Tracé 79" d="M326.31,345.519l.656,1.395a5.162,5.162,0,0,1-3.355,1.231,5.338,5.338,0,1,1,0-10.665,5.148,5.148,0,0,1,3.355,1.21l-.656,1.395a3.692,3.692,0,0,0-2.8-1.116,3.844,3.844,0,1,0,0,7.685A3.658,3.658,0,0,0,326.31,345.519Z" transform="translate(-252.796 -268.264)" fill="#fff"/>
      <path id="Tracé_80" data-name="Tracé 80" d="M443.939,340.613l1.173,2.158-.788,4.75H442.76Zm9.416-1.382-4.6,8.538-4.588-8.552.41-2.357,4.178,7.872,4.186-7.872Zm1.417,8.29h-1.567l-.79-4.762,1.169-2.186Z" transform="translate(-351.952 -267.772)" fill="#fff"/>
      <path id="Tracé_81" data-name="Tracé 81" d="M383.737,347.513h.018a5.557,5.557,0,0,0,.675-.33l-.189-.543a4.473,4.473,0,0,0,.445-.3l.472.351a5.335,5.335,0,0,0,.556-.517l-.345-.466a5.172,5.172,0,0,0,.336-.425l.556.205a5.125,5.125,0,0,0,.371-.652l-.472-.345a4.61,4.61,0,0,0,.195-.507l.593.031a5.144,5.144,0,0,0,.156-.726l-.556-.195a4.843,4.843,0,0,0,.033-.546l.574-.139a5,5,0,0,0-.074-.736l-.591-.027a4.393,4.393,0,0,0-.139-.531l.507-.3c-.041-.117-.086-.232-.135-.347s-.1-.226-.16-.336l-.572.144a4.874,4.874,0,0,0-.293-.468l.386-.441a5.229,5.229,0,0,0-.492-.568l-.5.3a4.712,4.712,0,0,0-.422-.359l.246-.523a5.8,5.8,0,0,0-.644-.41l-.392.433c-.166-.082-.336-.156-.509-.221l.076-.568a6.056,6.056,0,0,0-.74-.205l-.242.525a5.454,5.454,0,0,0-.548-.064l-.1-.564a5.712,5.712,0,0,0-.771.023l-.072.572a4.883,4.883,0,0,0-.535.094l-.267-.511a5.846,5.846,0,0,0-.716.238h-.016l.1.568a4.661,4.661,0,0,0-.474.24l-.41-.41a5.578,5.578,0,0,0-.63.443l.271.513a5.192,5.192,0,0,0-.375.361L377.4,339a5.51,5.51,0,0,0-.47.615l.41.41a4.714,4.714,0,0,0-.246.445l-.58-.117a5.391,5.391,0,0,0-.265.718l.521.275a4.325,4.325,0,0,0-.1.49l-.589.053a4.992,4.992,0,0,0-.039.763l.58.115a4.545,4.545,0,0,0,.053.494l-.548.219a5.434,5.434,0,0,0,.195.742l.591-.06c.029.078.059.154.092.232s.068.152.1.226l-.455.367a5.306,5.306,0,0,0,.41.654l.546-.224a4.872,4.872,0,0,0,.328.381l-.324.482a5.538,5.538,0,0,0,.589.509l.451-.369a4.969,4.969,0,0,0,.453.289l-.164.554a6,6,0,0,0,.714.318l.32-.482c.164.053.33.1.5.139l.012.576a5.73,5.73,0,0,0,.775.1l.158-.554h.529l.187.546a5.484,5.484,0,0,0,.767-.125l-.016-.572a5.257,5.257,0,0,0,.511-.162Zm-6.317-3.265a4.371,4.371,0,0,1,2.432-5.78,4.6,4.6,0,0,1,5.958,2.363,4.366,4.366,0,0,1-2.434,5.777A4.6,4.6,0,0,1,377.42,344.248Z" transform="translate(-298.918 -267.994)" fill="#fff"/>
      <path id="Tracé_82" data-name="Tracé 82" d="M220.964,256.432H207.145a2.443,2.443,0,1,0,0,4.881h13.83a2.443,2.443,0,1,0,0-4.881Zm0,3.763H207.145a1.323,1.323,0,0,1,0-2.646h13.83a1.323,1.323,0,1,1,0,2.646Z" transform="translate(-162.639 -203.838)" fill="#fff"/>
      <path id="Tracé_83" data-name="Tracé 83" d="M209.654,286.07a5,5,0,0,0,4.366,4.879,4.215,4.215,0,0,0,8.091,0,5,5,0,0,0,4.356-4.879v-.56H209.65Zm8.409,6.795a3.007,3.007,0,0,1-2.806-1.846h5.613a3.007,3.007,0,0,1-2.806,1.846Zm7.211-6.229a3.9,3.9,0,0,1-3.675,3.249l-.445.027h-6.167l-.453-.027a3.9,3.9,0,0,1-3.692-3.249Z" transform="translate(-166.652 -226.953)" fill="#fff"/>
      <path id="Tracé_84" data-name="Tracé 84" d="M158.65,29.944l3.2-.775a28.92,28.92,0,0,0-.41-4.1l-3.292-.154a26.047,26.047,0,0,0-.767-2.968L160.2,20.3q-.342-.97-.753-1.926t-.89-1.87l-3.191.794a26.619,26.619,0,0,0-1.641-2.6l2.2-2.391a29.973,29.973,0,0,0-2.73-3.152l-2.812,1.674a27.3,27.3,0,0,0-2.354-2.008l1.368-2.9a31.054,31.054,0,0,0-3.585-2.223L143.629,6.1a28.4,28.4,0,0,0-2.834-1.231l.425-3.165A31.827,31.827,0,0,0,137.1.6l-1.356,2.925a28.457,28.457,0,0,0-3.048-.353L132.145.022a31.572,31.572,0,0,0-4.286.129l-.41,3.181a28.437,28.437,0,0,0-2.978.533L122.99,1.025a31.681,31.681,0,0,0-3.983,1.323l-.1.041.58,3.148a28.217,28.217,0,0,0-2.644,1.337l-2.287-2.3a30.445,30.445,0,0,0-3.505,2.473L112.569,9.9a27.278,27.278,0,0,0-2.09,2.008l-2.882-1.54a29.922,29.922,0,0,0-2.607,3.386l2.311,2.289a26.056,26.056,0,0,0-1.37,2.478l-3.224-.648a29.247,29.247,0,0,0-1.479,3.993l2.9,1.526a26.167,26.167,0,0,0-.56,2.73l-3.282.3a28.766,28.766,0,0,0-.205,4.25l3.236.63a26.115,26.115,0,0,0,.283,2.744l-3.042,1.231a28.9,28.9,0,0,0,1.085,4.129l3.282-.324q.24.642.517,1.284c.185.425.379.845.582,1.257l-2.537,2.051a29.7,29.7,0,0,0,2.279,3.642l3.033-1.247a26.684,26.684,0,0,0,1.823,2.129l-1.8,2.683a30.613,30.613,0,0,0,3.282,2.828l2.521-2.051a27.835,27.835,0,0,0,2.4,1.522l-.909,3.076c.632.336,1.278.65,1.932.943l2.683-4.783a24.849,24.849,0,0,1-13.065-12.939A24.311,24.311,0,0,1,121.2,7.314c12.886-5.252,27.737.63,33.151,13.142A24.3,24.3,0,0,1,141.329,52.4l2.972,4.606c.82-.379,1.61-.786,2.377-1.231l-1.052-3.023a27.125,27.125,0,0,0,2.482-1.684l2.625,1.948a30.148,30.148,0,0,0,3.095-2.871L151.9,47.557a27.394,27.394,0,0,0,1.875-2.359l3.091,1.091a29.924,29.924,0,0,0,2.076-3.63l-2.627-1.922a26.238,26.238,0,0,0,1.083-2.822l3.294.174a29.1,29.1,0,0,0,.872-4.04l-3.093-1.087a26.206,26.206,0,0,0,.176-3.019Z" transform="translate(-79.549 0)" fill="#fff"/>
      <path id="Tracé_85" data-name="Tracé 85" d="M331.73,106.206l-.07-.086Z" transform="translate(-263.638 -84.355)" fill="#fff"/>
      <path id="Tracé_86" data-name="Tracé 86" d="M332.141,106.667l-.1-.127Z" transform="translate(-263.94 -84.689)" fill="#fff"/>
      <path id="Tracé_87" data-name="Tracé 87" d="M165.31,108.137l.1-.137Z" transform="translate(-131.406 -85.85)" fill="#fff"/>
      <path id="Tracé_88" data-name="Tracé 88" d="M165.82,107.618l.074-.1Z" transform="translate(-131.811 -85.468)" fill="#fff"/>
      <path id="Tracé_89" data-name="Tracé 89" d="M332.634,107.277l-.094-.117Z" transform="translate(-264.338 -85.182)" fill="#fff"/>
      <path id="Tracé_90" data-name="Tracé 90" d="M271.243,73.233a21.329,21.329,0,0,0,1.319-3.187,3.867,3.867,0,0,0,.347-4.221,5.276,5.276,0,0,0-.855-1.715l-.1-.191-.041-.078v-.01l-.031-.059c.935-2.084,1.606-5.172-.615-7.952l-.07-.086-.322-.41-.035-.045h0a2.051,2.051,0,0,0-.909-1.134h0l-.051-.064.051.064a1.39,1.39,0,0,0-.948-.133s2.028-4.729-2.381-7.285h-.018l-.234-.135-.053-.031-.205-.115-.148-.086a6.588,6.588,0,0,0-.954-.562c-.24-1.542-1.216-3.1-4.248-2.871,0,0-4.342-5.01-7.566.656,0,0-.48,3.208,1.352,4.635,0,0-2.336,3.031.158,5.6a12.377,12.377,0,0,0-.445,2.391,4.266,4.266,0,0,0,.371,2.426c.049.5.08,1,.1,1.491v.062c.142-.232.287-.461.439-.689.051-.078.109-.156.162-.234a20.921,20.921,0,0,1,1.436-1.864c.111-.129.221-.258.33-.379a6.415,6.415,0,0,0,1.417-2.461,6.251,6.251,0,0,0,.228-1.083,9.36,9.36,0,0,0,0-2.131,18.7,18.7,0,0,0-.7-3.282c-.425-1.419-.907-2.736-1.352-3.971.238.082.476.172.71.269.435.984.894,2.051,1.329,3.2a19.427,19.427,0,0,1,.982,3.5c.021.127.035.263.053.4a11.986,11.986,0,0,1,.113,1.3l.117-.246c.076-.158.156-.322.236-.492a4.015,4.015,0,0,0,.234-.544c.139-.39.306-.792.445-1.231s.263-.907.367-1.391c.039-.205.08-.425.119-.638l.472-.937.016.012-.01.142c-.01.135-.016.271-.031.41l-.055.4c-.039.265-.076.527-.113.79-.09.517-.221,1.007-.326,1.5s-.283.911-.41,1.337a4.387,4.387,0,0,1-.224.595l-.226.541a8.825,8.825,0,0,1-.42.925l-.275.517c-.037.263-.082.523-.144.781a9.149,9.149,0,0,1-1.608,3.411c-.115.156-.226.308-.334.461a21.152,21.152,0,0,0-1.28,2.022l-.012.023a19.788,19.788,0,0,0-.919,1.907c-.113.273-.221.544-.32.82-.084.226-.166.451-.24.675h0c.205-.252.425-.5.642-.744.271-.3.548-.593.837-.865a19.644,19.644,0,0,1,1.9-1.583l.464-.347c.144-.111.287-.228.431-.355a11.016,11.016,0,0,0,.833-.808,12.475,12.475,0,0,0,2.016-3.019c.09-.18.17-.371.256-.566s.156-.369.226-.562a16.566,16.566,0,0,0,.679-2.256,19.7,19.7,0,0,0,.466-3.659q0-.326.012-.585l.068.084c0,.152.016.314.025.5a20.509,20.509,0,0,1-.205,3.813,18.394,18.394,0,0,1-.537,2.461c-.06.205-.131.427-.205.646s-.142.41-.226.634c-.158.429-.338.853-.539,1.267a14.339,14.339,0,0,1-1.411,2.361,13.127,13.127,0,0,1-.849,1.036c-.146.162-.3.322-.459.48l-.451.433a21.144,21.144,0,0,0-1.641,1.749,18.928,18.928,0,0,0-1.38,1.891l-.033.049c-.121.205-.238.41-.353.615.146-.039.3-.084.443-.127a14.694,14.694,0,0,0,2.373-.911,9.721,9.721,0,0,0,3.4-2.65,7.666,7.666,0,0,0,1.194-2.16l.451-1.36c.139-.47.338-.892.5-1.325s.379-.82.562-1.208a11.534,11.534,0,0,1,.615-1.071,12.485,12.485,0,0,1,1.286-1.7c.168-.193.336-.361.5-.519.051.107.107.205.156.324-.15.176-.3.361-.453.57a13.185,13.185,0,0,0-1.122,1.79q-.26.523-.513,1.089c-.148.4-.324.779-.455,1.206s-.289.843-.392,1.3-.24.933-.361,1.409c-.012.043-.029.084-.041.127l.595-.55.909-.749c.312-.244.638-.47.96-.706a9.619,9.619,0,0,1,.984-.615c.328-.185.652-.377.974-.523.156-.078.31-.152.461-.219.025.086.053.17.078.258-.152.084-.308.172-.464.269-.312.17-.615.4-.937.6s-.628.464-.941.7-.615.509-.913.775l-.857.82-.775.82c-.246.263-.464.535-.673.775l-.111.129a9.97,9.97,0,0,1-.5.876,12.146,12.146,0,0,1-3.6,3.5,17.245,17.245,0,0,1-2.621,1.395c-.219.094-.435.185-.642.265h.092c-.17.045-1.009.564-1.388,6.331-.338,1.9.217,4.385,4.235,6.2,0,0,5.3.915,6.011-3.821C264.485,78.51,271.056,80.778,271.243,73.233Z" transform="translate(-201.209 -32.497)" fill="#fff"/>
      <path id="Tracé_91" data-name="Tracé 91" d="M152.375,73.241a21.343,21.343,0,0,1-1.321-3.187,3.867,3.867,0,0,1-.347-4.221,5.277,5.277,0,0,1,.855-1.715l.1-.191.041-.078v-.01l.029-.059c-.935-2.084-1.606-5.172.615-7.952l.072-.086.32-.41.037-.045h0a2.051,2.051,0,0,1,.909-1.134h0l.051-.064-.051.064a1.384,1.384,0,0,1,.945-.133s-2.026-4.729,2.383-7.285h.016l.236-.135.053-.031.205-.115.148-.086a6.7,6.7,0,0,1,.948-.56c.242-1.542,1.216-3.1,4.247-2.871,0,0,4.342-5.01,7.566.656,0,0,.48,3.208-1.352,4.635,0,0,2.336,3.031-.158,5.6a12.473,12.473,0,0,1,.447,2.391,4.354,4.354,0,0,1-.373,2.426c-.047.5-.08,1-.1,1.491v.059q-.205-.347-.437-.689l-.164-.234a20.533,20.533,0,0,0-1.436-1.864c-.109-.129-.219-.258-.33-.379a6.411,6.411,0,0,1-1.415-2.461,6.07,6.07,0,0,1-.23-1.083,9.364,9.364,0,0,1,0-2.131,18.7,18.7,0,0,1,.7-3.282c.425-1.419.909-2.736,1.352-3.971-.238.082-.476.172-.71.269-.435.984-.894,2.051-1.329,3.2a19.6,19.6,0,0,0-.982,3.5c-.02.127-.035.263-.051.4a11.99,11.99,0,0,0-.113,1.3l-.119-.246-.236-.492a4.012,4.012,0,0,1-.234-.543c-.139-.39-.306-.792-.445-1.231s-.263-.907-.367-1.391c-.039-.205-.078-.425-.119-.638l-.468-.945-.014.012v.142a4.027,4.027,0,0,0,.031.41l.055.4c.039.265.076.527.115.79.088.517.219,1.007.324,1.5s.285.911.41,1.337a4.67,4.67,0,0,0,.224.595q.117.283.228.541a8.409,8.409,0,0,0,.42.925l.275.517c.037.263.08.523.142.781a9.149,9.149,0,0,0,1.612,3.431c.117.156.226.308.334.461a21.155,21.155,0,0,1,1.28,2.022l.012.023a19.317,19.317,0,0,1,.919,1.907c.113.273.221.543.322.82.082.226.166.451.24.675h0q-.314-.377-.642-.744c-.271-.3-.548-.593-.837-.866a19.4,19.4,0,0,0-1.9-1.583l-.464-.347c-.142-.111-.287-.228-.431-.355a11.017,11.017,0,0,1-.833-.808,11.875,11.875,0,0,1-1.436-1.936,12.163,12.163,0,0,1-.58-1.083c-.09-.18-.17-.371-.256-.566s-.156-.369-.226-.562a16.259,16.259,0,0,1-.677-2.256,19.556,19.556,0,0,1-.468-3.659q0-.326-.012-.585l-.066.084c-.01.152-.018.314-.027.5a20.7,20.7,0,0,0,.205,3.813,18.4,18.4,0,0,0,.537,2.461c.059.205.131.427.205.646s.139.41.224.634c.16.429.34.853.539,1.267a14.633,14.633,0,0,0,1.411,2.361c.269.363.554.71.849,1.036.148.162.3.322.459.48l.451.433a21.517,21.517,0,0,1,1.641,1.749,19.236,19.236,0,0,1,1.378,1.891l.033.049c.121.205.238.41.353.615-.144-.039-.3-.084-.443-.127a14.767,14.767,0,0,1-2.373-.911,9.715,9.715,0,0,1-3.394-2.65,7.67,7.67,0,0,1-1.2-2.16l-.451-1.36c-.139-.47-.336-.892-.5-1.325s-.381-.82-.564-1.208a11.531,11.531,0,0,0-.615-1.071,12.485,12.485,0,0,0-1.284-1.7c-.17-.193-.338-.361-.5-.519-.051.107-.1.205-.156.324.15.176.3.361.453.57a13.185,13.185,0,0,1,1.122,1.79q.263.523.513,1.089c.148.4.324.779.457,1.206s.289.843.39,1.3l.363,1.409c.01.043.027.084.039.127l-.595-.55-.907-.749c-.314-.244-.64-.47-.962-.706a9.618,9.618,0,0,0-.984-.615c-.328-.185-.652-.377-.974-.523-.156-.078-.31-.152-.459-.219-.027.086-.055.17-.08.258.154.084.308.172.464.269.312.17.615.4.937.6s.628.464.941.7.615.509.913.775l.857.82.777.82c.244.263.464.535.671.775l.113.129a9.955,9.955,0,0,0,.5.876,12.146,12.146,0,0,0,3.6,3.5,17.243,17.243,0,0,0,2.621,1.395c.219.094.435.185.644.265h-.094c.17.045,1.011.564,1.391,6.331.336,1.9-.217,4.385-4.237,6.2,0,0-5.3.915-6.011-3.821C159.131,78.518,152.562,80.786,152.375,73.241Z" transform="translate(-119.437 -32.505)" fill="#fff"/>
    </g>
  </g>
</svg>
